# xmcd
#
# Track frame offsets: 
#        150
#        13638
#        28379
#        44597
#        60584
#        73244
#        88124
#        100365
#        114288
#        130094
#
# Disc length: 1934 seconds
#
# Revision: 0
# Processed by: cddbd v1.5.2PL0 Copyright (c) Steve Scherf et al.
# Submitted via: ExactAudioCopy v0.99pb5
#
DISCID=8b078c0a
DTITLE=Marc Benno - I Got It Bad!
DYEAR=2009
DGENRE=Blues
TTITLE0=Terminal Case Of The Blues
TTITLE1=Alone In San Antone
TTITLE2=Texas Oil Driller
TTITLE3=Torture Me
TTITLE4=Too Bad You're No Good
TTITLE5=Save Our Love
TTITLE6=Chance With You
TTITLE7=Tip Jar
TTITLE8=My Baby's A Gambler
TTITLE9=Thing Or Two
EXTD=
EXTT0=
EXTT1=
EXTT2=
EXTT3=
EXTT4=
EXTT5=
EXTT6=
EXTT7=
EXTT8=
EXTT9=
PLAYORDER=
